<svg width="84" height="77" viewBox="0 0 84 77" fill="none" xmlns="http://www.w3.org/2000/svg">
<rect y="49" width="15" height="28" rx="4" fill="#E54C41"/>
<rect x="23" y="62" width="15" height="15" rx="4" fill="#F8BE18"/>
<rect x="46" y="16" width="15" height="15" rx="4" fill="#3FA95B"/>
<rect x="69" y="62" width="15" height="15" rx="4" fill="#4C88EF"/>
<rect x="69" y="34" width="15" height="23" rx="4.3" fill="#4C88EF"/>
<rect x="69" width="15" height="27" rx="5.3" fill="#4C88EF"/>
<rect x="23" y="35" width="15" height="21" rx="4" fill="#F8BE18"/>
<rect x="46" y="56" width="15" height="21" rx="4" fill="#3FA95B"/>
<path d="M46.4289 42.2921C46.2616 39.4477 46.178 38.0255 46.7898 36.9798C47.0963 36.4561 47.5179 36.0089 48.0228 35.6722C49.0307 35 50.4554 35 53.3047 35V35C56.2906 35 57.7835 35 58.8123 35.7144C59.3268 36.0716 59.7502 36.5446 60.0484 37.0954C60.6448 38.1968 60.4799 39.6806 60.1502 42.6482L60.0866 43.2205C60.0468 43.5785 60.027 43.7574 59.9912 43.9335C59.9828 43.9747 59.9738 44.0158 59.9641 44.0566C59.9228 44.2315 59.8659 44.4024 59.752 44.744L59.182 46.4539C59.131 46.607 59.1055 46.6835 59.077 46.7587C59.0176 46.9157 58.9483 47.0688 58.8696 47.2171C58.8319 47.2882 58.7912 47.3579 58.71 47.4972V47.4972C58.3766 48.0686 58.21 48.3543 58.0079 48.6007C57.585 49.1161 57.04 49.5177 56.4224 49.7689C56.1272 49.8889 55.805 49.9635 55.1604 50.1126L54.6944 50.2203C51.8671 50.8743 50.4535 51.2012 49.3335 50.7891C48.6032 50.5203 47.9672 50.0444 47.5033 49.4197C46.7918 48.4614 46.7066 47.013 46.5362 44.1161L46.4289 42.2921Z" fill="#3FA95B"/>
</svg>
